# Blender 4.3.2
# www.blender.org
mtllib HomeLevel_01.mtl
o Cube
v 0.500000 2.063867 -1.500000
v 0.500000 1.063867 -1.500000
v 0.500000 2.063867 1.500000
v 0.500000 1.063867 1.500000
v -0.500000 2.063867 -1.500000
v -0.500000 1.063867 -1.500000
v -0.500000 2.063867 1.500000
v -0.500000 1.063867 1.500000
v -0.500000 1.063867 -0.968182
v 0.500000 2.063867 -0.968182
v -0.500000 2.063867 -0.968182
v 0.500000 1.063867 -0.968182
v -0.500000 1.063867 -0.611667
v 0.500000 2.063867 -0.611667
v -0.500000 2.063867 -0.611667
v 0.500000 1.063867 -0.611667
v -0.500000 1.063867 1.047500
v 0.500000 2.063867 1.047500
v -0.500000 2.063867 1.047500
v 0.500000 1.063867 1.047500
v -0.500000 2.063867 0.701840
v 0.500000 1.063867 0.701840
v -0.500000 1.063867 0.701840
v 0.500000 2.063867 0.701840
v -0.193564 0.063867 0.701840
v -0.193564 0.063867 1.047500
v 0.193564 0.063867 1.047500
v 0.193564 0.063867 0.701840
v 0.500000 0.063867 0.701840
v 0.500000 0.063867 1.047500
v -0.500000 0.063867 1.047500
v -0.500000 0.063867 0.701840
v -0.500000 0.063867 -0.611667
v -0.500000 0.063867 -0.968182
v 0.500000 0.063867 -0.968182
v 0.500000 0.063867 -0.611667
v -0.193564 1.063867 -1.500000
v 0.193564 1.063867 -1.500000
v 0.193564 2.063867 1.500000
v -0.193564 2.063867 1.500000
v 0.193564 1.063867 1.500000
v -0.193564 1.063867 1.500000
v 0.193564 2.063867 -1.500000
v -0.193564 2.063867 -1.500000
v -0.193564 1.063867 -0.968182
v 0.193564 1.063867 -0.968182
v 0.193564 2.063867 -0.968182
v -0.193564 2.063867 -0.968182
v -0.193564 1.063867 -0.611667
v 0.193564 1.063867 -0.611667
v 0.193564 2.063867 -0.611667
v -0.193564 2.063867 -0.611667
v 0.193564 1.063867 1.047500
v -0.193564 1.063867 1.047500
v -0.193564 2.063867 1.047500
v 0.193564 2.063867 1.047500
v -0.193564 2.063867 0.701840
v 0.193564 2.063867 0.701840
v 0.193564 1.063867 0.701840
v -0.193564 1.063867 0.701840
v 0.193564 0.063867 -0.968182
v 0.193564 0.063867 -0.611667
v -0.193564 0.063867 -0.611667
v -0.193564 0.063867 -0.968182
vn -0.0000 -1.0000 -0.0000
vn -0.0000 1.0000 -0.0000
vn -1.0000 -0.0000 -0.0000
vn 1.0000 -0.0000 -0.0000
vn -0.0000 -0.0000 1.0000
vn -0.0000 -0.0000 -1.0000
vt 0.298391 0.712292
vt 0.375000 0.712292
vt 0.375000 0.750000
vt 0.298391 0.750000
vt 0.625000 0.712292
vt 0.701609 0.712292
vt 0.701609 0.750000
vt 0.625000 0.750000
vt 0.375000 0.205682
vt 0.625000 0.205682
vt 0.625000 0.250000
vt 0.375000 0.250000
vt 0.125000 0.712292
vt 0.201609 0.712292
vt 0.201609 0.750000
vt 0.125000 0.750000
vt 0.375000 0.923391
vt 0.625000 0.923391
vt 0.625000 1.000000
vt 0.375000 1.000000
vt 0.375000 0.500000
vt 0.625000 0.500000
vt 0.625000 0.544318
vt 0.375000 0.544318
vt 0.125000 0.500000
vt 0.201609 0.500000
vt 0.201609 0.544318
vt 0.125000 0.544318
vt 0.375000 0.175972
vt 0.625000 0.175972
vt 0.375000 0.066513
vt 0.625000 0.066513
vt 0.625000 0.574028
vt 0.375000 0.574028
vt 0.701609 0.544318
vt 0.701609 0.574028
vt 0.125000 0.574028
vt 0.201609 0.574028
vt 0.201609 0.683487
vt 0.125000 0.683487
vt 0.375000 0.000000
vt 0.625000 0.000000
vt 0.625000 0.037708
vt 0.375000 0.037708
vt 0.375000 0.683487
vt 0.625000 0.683487
vt 0.701609 0.683487
vt 0.298391 0.544318
vt 0.298391 0.574028
vt 0.298391 0.683487
vt 0.798391 0.574028
vt 0.875000 0.574028
vt 0.875000 0.683487
vt 0.798391 0.683487
vt 0.875000 0.712292
vt 0.798391 0.712292
vt 0.798391 0.544318
vt 0.875000 0.544318
vt 0.798391 0.500000
vt 0.875000 0.500000
vt 0.375000 0.423391
vt 0.625000 0.423391
vt 0.298391 0.500000
vt 0.701609 0.500000
vt 0.875000 0.750000
vt 0.798391 0.750000
vt 0.625000 0.826609
vt 0.375000 0.826609
vt 0.375000 0.326609
vt 0.625000 0.326609
s 0
usemtl Red
f 53/1/1 20/2/1 4/3/1 41/4/1
f 18/5/2 56/6/2 39/7/2 3/8/2
f 9/9/3 11/10/3 5/11/3 6/12/3
f 17/13/1 54/14/1 42/15/1 8/16/1
f 20/2/4 18/5/4 3/8/4 4/3/4
f 42/17/5 40/18/5 7/19/5 8/20/5
f 2/21/4 1/22/4 10/23/4 12/24/4
f 6/25/1 37/26/1 45/27/1 9/28/1
f 13/29/3 15/30/3 11/10/3 9/9/3
f 9/28/6 45/27/6 64/27/6 34/28/6
f 23/31/3 21/32/3 15/30/3 13/29/3
f 12/24/4 10/23/4 14/33/4 16/34/4
f 10/23/2 47/35/2 51/36/2 14/33/2
f 13/37/1 49/38/1 60/39/1 23/40/1
f 8/41/3 7/42/3 19/43/3 17/44/3
f 22/45/4 24/46/4 18/5/4 20/2/4
f 24/46/2 58/47/2 56/6/2 18/5/2
f 34/28/1 64/27/1 63/38/1 33/37/1
f 46/48/6 12/24/6 35/24/6 61/48/6
f 14/33/2 51/36/2 58/47/2 24/46/2
f 16/34/4 14/33/4 24/46/4 22/45/4
f 17/44/3 19/43/3 21/32/3 23/31/3
f 50/49/1 16/34/1 22/45/1 59/50/1
f 52/51/2 15/52/2 21/53/2 57/54/2
f 57/54/2 21/53/2 19/55/2 55/56/2
f 16/34/5 50/49/5 62/49/5 36/34/5
f 48/57/2 11/58/2 15/52/2 52/51/2
f 49/38/5 13/37/5 33/37/5 63/38/5
f 44/59/2 5/60/2 11/58/2 48/57/2
f 38/61/6 43/62/6 1/22/6 2/21/6
f 38/63/1 2/21/1 12/24/1 46/48/1
f 1/22/2 43/64/2 47/35/2 10/23/2
f 55/56/2 19/55/2 7/65/2 40/66/2
f 4/3/5 3/8/5 39/67/5 41/68/5
f 50/49/1 59/50/1 60/39/1 49/38/1
f 52/51/2 57/54/2 58/47/2 51/36/2
f 57/54/2 55/56/2 56/6/2 58/47/2
f 59/50/1 53/1/1 54/14/1 60/39/1
f 48/57/2 52/51/2 51/36/2 47/35/2
f 46/48/1 50/49/1 49/38/1 45/27/1
f 44/59/2 48/57/2 47/35/2 43/64/2
f 38/63/1 46/48/1 45/27/1 37/26/1
f 43/62/6 38/61/6 37/69/6 44/70/6
f 53/1/1 41/4/1 42/15/1 54/14/1
f 40/18/5 42/17/5 41/68/5 39/67/5
f 55/56/2 40/66/2 39/7/2 56/6/2
f 6/12/6 5/11/6 44/70/6 37/69/6
f 32/40/1 25/39/1 26/14/1 31/13/1
f 28/50/1 29/45/1 30/2/1 27/1/1
f 61/48/1 35/24/1 36/34/1 62/49/1
f 50/49/3 46/48/3 61/48/3 62/49/3
f 53/1/3 59/50/3 28/50/3 27/1/3
f 20/2/5 53/1/5 27/1/5 30/2/5
f 13/29/3 9/9/3 34/9/3 33/29/3
f 23/40/6 60/39/6 25/39/6 32/40/6
f 45/27/4 49/38/4 63/38/4 64/27/4
f 17/44/3 23/31/3 32/31/3 31/44/3
f 54/14/5 17/13/5 31/13/5 26/14/5
f 59/50/6 22/45/6 29/45/6 28/50/6
f 60/39/4 54/14/4 26/14/4 25/39/4
f 22/45/4 20/2/4 30/2/4 29/45/4
f 12/24/4 16/34/4 36/34/4 35/24/4
o Field
v -200.000000 0.000000 268.267303
v 200.000000 0.000000 268.267303
v -200.000000 0.000000 -200.000000
v 200.000000 0.000000 -200.000000
vn -0.0000 1.0000 -0.0000
vt 0.000000 0.000000
vt 1.000000 0.000000
vt 1.000000 1.000000
vt 0.000000 1.000000
s 0
usemtl Green
f 65/71/7 66/72/7 68/73/7 67/74/7
o Home_Rock
v -60.823330 0.351294 -101.673782
v -60.823330 38.347542 -101.673782
v -10.793295 -0.213722 -339.711670
v -10.793295 38.347542 -339.711670
v 39.213722 -0.213722 -97.895569
v 39.213718 38.347542 -97.895569
v 67.634148 -0.213722 -323.114960
v 67.634148 38.347542 -323.114960
v 175.310928 38.347546 -285.702332
v 175.310928 -0.213722 -285.702332
v 167.788559 -0.213722 -120.782288
v 167.788559 38.347542 -120.782288
v -119.213722 -0.213722 -311.806610
v -119.213722 -0.213722 -120.782288
v -119.213722 38.347542 -120.782288
v -119.213722 38.347542 -311.806610
v -39.213722 38.347542 -187.050629
v 39.213718 38.347542 -187.050644
v 167.788559 -0.213722 -198.494003
v 167.788559 38.347542 -244.288467
v -119.213722 38.347542 -198.494003
v 202.656601 38.347546 -270.327393
v 202.656601 -0.213722 -270.327393
v 199.160095 -0.213722 -198.494003
v 199.160095 38.347542 -244.288467
v 167.788559 -0.213722 -88.768707
v 199.160095 -0.213722 -88.768707
v -157.054947 -0.213722 -235.152573
v -157.054947 -0.213722 -120.782288
v -157.054947 38.347542 -120.782288
v -157.054947 38.347542 -235.152573
v -161.929459 38.347546 -305.768646
v -161.929459 -0.213722 -305.768646
v -200.054932 38.347542 -235.152573
v -195.180435 38.347546 -278.503784
v -195.180435 -0.213722 -278.503784
v -200.054932 -0.213722 -235.152573
v -157.054947 19.241198 -120.532967
v -157.054947 -0.228868 -120.532967
v -200.054932 19.241198 -120.532967
v -200.054932 -0.228868 -120.532967
v -157.054947 19.241198 -94.623962
v -157.054947 -0.253526 -94.623962
v -200.054932 19.241198 -94.623962
v -200.054932 -0.253526 -94.623962
v -83.215439 -0.228868 -120.532967
v -83.215439 -0.253526 -94.623962
v -49.276096 38.347542 -84.932373
v -6.369318 38.347542 -76.217712
v -6.369321 0.351294 -76.217712
v -49.276096 0.351294 -84.932373
v -60.823330 -15.411772 -101.673782
v -10.793295 -15.976787 -339.711670
v 39.213722 -15.976787 -97.895569
v 67.634148 -15.976787 -323.114960
v 175.310928 -15.976787 -285.702332
v 167.788559 -15.976787 -120.782288
v -119.213722 -15.976787 -311.806610
v -119.213722 -15.976787 -120.782288
v 167.788559 -15.976787 -198.494003
v 202.656601 -15.976787 -270.327393
v 199.160095 -15.976787 -198.494003
v 167.788559 -15.976787 -88.768707
v 199.160095 -15.976787 -88.768707
v -157.054947 -15.976787 -235.152573
v -157.054947 -15.976787 -120.782288
v -161.929459 -15.976787 -305.768646
v -195.180435 -15.976787 -278.503784
v -200.054932 -15.976787 -235.152573
v -157.054947 -15.991933 -120.532967
v -200.054932 -15.991933 -120.532967
v -157.054947 -16.016590 -94.623962
v -200.054932 -16.016590 -94.623962
v -83.215439 -15.991933 -120.532967
v -83.215439 -16.016590 -94.623962
v -6.369321 -15.411772 -76.217712
v -49.276096 -15.411772 -84.932373
vn -0.2493 -0.0000 -0.9684
vn 0.2070 -0.0000 -0.9783
vn -0.0000 1.0000 -0.0000
vn 1.0000 -0.0000 -0.0000
vn 0.3282 -0.0000 -0.9446
vn 0.1752 -0.0000 0.9845
vn -0.3110 -0.0000 0.9504
vn -0.1400 -0.0000 -0.9902
vn 0.9966 0.0423 0.0712
vn 0.4901 -0.0000 -0.8717
vn -1.0000 -0.0000 -0.0000
vn -0.0000 0.9706 0.2407
vn -0.6341 -0.0000 -0.7733
vn -0.0000 -0.0000 1.0000
vn -0.9937 -0.0000 -0.1117
vn -0.0000 0.9864 0.1644
vn -0.0000 -0.0000 -1.0000
vn 0.2551 0.9669 0.0005
vn -0.8232 -0.0000 0.5678
vn -0.1990 -0.0000 0.9800
vn 0.4295 -0.0000 0.9031
vn 0.9988 -0.0000 0.0486
vt 0.625000 0.250000
vt 0.375000 0.250000
vt 0.625000 0.500000
vt 0.375000 0.500000
vt 0.625000 0.625000
vt 0.625000 0.750000
vt 0.625000 0.625000
vt 0.875000 0.625000
vt 0.875000 0.750000
vt 0.375000 0.625000
vt 0.375000 0.750000
vt 0.375000 1.000000
vt 0.625000 1.000000
vt 0.875000 0.500000
vt 0.375000 0.000000
vt 0.625000 0.000000
vt 0.625000 0.125000
vt 0.375000 0.125000
vt 0.821701 0.750000
vt 0.375000 0.946701
vt 0.625000 0.946701
s 0
f 72/75/8 71/76/8 81/76/8 84/75/8
f 71/76/9 72/75/9 76/77/9 75/78/9
f 86/79/10 74/80/10 80/80/10 88/81/10
f 86/79/10 85/82/10 70/83/10 74/80/10
f 87/84/11 88/81/11 80/80/11 79/85/11
f 75/78/12 76/77/12 77/77/12 78/78/12
f 74/80/13 73/85/13 79/85/13 80/80/13
f 69/86/14 70/87/14 83/87/14 82/86/14
f 85/82/10 72/88/10 84/88/10 89/82/10
f 70/83/10 85/82/10 89/82/10 83/83/10
f 84/75/15 81/76/15 101/76/15 100/75/15
f 76/77/10 72/88/10 85/82/10 86/79/10
f 76/77/10 86/79/10 88/81/10 77/77/10
f 91/78/16 90/77/16 93/81/16 92/84/16
f 77/77/10 88/81/10 93/81/10 90/77/10
f 78/78/17 77/77/17 90/77/17 91/78/17
f 88/81/18 87/84/18 94/84/18
f 92/84/11 93/81/11 95/84/11
f 93/81/19 88/81/19 94/84/19 95/84/19
f 100/75/20 101/76/20 104/76/20 103/75/20
f 97/89/18 98/90/18 99/91/18 96/92/18
f 82/86/21 83/87/21 98/87/21 97/86/21
f 83/83/10 89/82/10 99/82/10 98/83/10
f 89/82/10 84/88/10 100/88/10 99/82/10
f 105/92/22 102/91/22 103/75/22 104/76/22
f 99/82/23 102/82/23 108/82/23 106/82/23
f 99/82/10 100/88/10 103/88/10 102/82/10
f 96/92/11 99/91/11 106/91/11 107/92/11
f 102/91/18 105/92/18 109/92/18 108/91/18
f 111/92/21 110/91/21 112/91/21 113/92/21
f 108/91/18 109/92/18 113/92/18 112/91/18
f 106/82/10 108/82/10 112/82/10 110/82/10
f 110/91/21 111/92/21 115/92/21
f 107/92/24 106/91/24 114/92/24
f 106/82/25 110/82/25 115/92/25 114/92/25
f 74/80/10 70/83/10 116/83/10 117/93/10
f 70/87/26 69/86/26 119/86/26 116/87/26
f 118/94/27 117/95/27 116/87/27 119/86/27
f 73/85/28 74/80/28 117/95/28 118/94/28
f 91/78/29 92/84/29 130/84/29 129/78/29
f 105/92/22 104/76/22 136/76/22 137/92/22
f 111/92/21 113/92/21 141/92/21 140/92/21
f 94/84/18 87/84/18 128/84/18 131/84/18
f 113/92/18 109/92/18 139/92/18 141/92/18
f 119/86/26 69/86/26 120/86/26 145/86/26
f 75/78/12 78/78/12 124/78/12 123/78/12
f 101/76/15 81/76/15 126/76/15 135/76/15
f 118/94/27 119/86/27 145/86/27 144/94/27
f 92/84/11 95/84/11 132/84/11 130/84/11
f 104/76/20 101/76/20 135/76/20 136/76/20
f 69/86/14 82/86/14 127/86/14 120/86/14
f 78/78/17 91/78/17 129/78/17 124/78/17
f 79/85/13 73/85/13 122/85/13 125/85/13
f 96/92/11 107/92/11 138/92/11 133/92/11
f 97/89/18 96/92/18 133/92/18 134/89/18
f 82/86/21 97/86/21 134/86/21 127/86/21
f 109/92/18 105/92/18 137/92/18 139/92/18
f 114/92/11 115/92/11 143/92/11 142/92/11
f 87/84/11 79/85/11 125/85/11 128/84/11
f 107/92/24 114/92/24 142/92/24 138/92/24
f 71/76/9 75/78/9 123/78/9 121/76/9
f 95/84/21 94/84/21 131/84/21 132/84/21
f 73/85/28 118/94/28 144/94/28 122/85/28
f 115/92/21 111/92/21 140/92/21 143/92/21
f 81/76/8 71/76/8 121/76/8 126/76/8
